<?xml version="1.0" encoding="utf-8"?>
<!-- Generator: Adobe Illustrator 23.0.1, SVG Export Plug-In . SVG Version: 6.00 Build 0)  -->
<svg version="1.1" id="Layer_1" xmlns="http://www.w3.org/2000/svg" xmlns:xlink="http://www.w3.org/1999/xlink" x="0px" y="0px"
	 viewBox="0 0 512 512" style="enable-background:new 0 0 512 512;" xml:space="preserve">
<style type="text/css">
	.st0{fill-rule:evenodd;clip-rule:evenodd;fill:#1B1B1B;}
</style>
<path class="st0" d="M436.4,456H75.6c-10.8,0-19.6-9-19.6-20v-26.7c0-2.4,1.3-4.7,3.5-5.9l137.4-75c-47-38-47.6-110.3-47.6-113.6
	l0.1-76.1c0-0.4,0-0.7,0.1-1.1C156,98.4,200.1,56.3,255.4,56c0.2,0,0.4,0,0.6,0c55.6,0,100,42.3,106.5,81.7c0.1,0.4,0.1,0.7,0.1,1.1
	l0.1,76.1c0,3.3-0.6,77.3-47.1,113.7l137,74.8c2.1,1.2,3.5,3.4,3.5,5.8V436C456,447,447.2,456,436.4,456z M442.7,413.3l-143-78.1
	c0,0,0,0,0,0c-0.1,0-0.1-0.1-0.1-0.1c-0.9-0.5-1.6-1.2-2.1-2.1c-0.1-0.1-0.2-0.1-0.2-0.2c-0.1-0.2-0.2-0.5-0.3-0.8
	c-0.2-0.4-0.4-0.8-0.5-1.3c-0.1-0.4-0.1-0.8-0.1-1.2c0-0.4,0-0.8,0.1-1.3c0.1-0.5,0.2-0.9,0.4-1.3c0.1-0.3,0.1-0.5,0.2-0.8
	c0.1-0.1,0.2-0.2,0.3-0.3c0.2-0.4,0.5-0.7,0.8-1c0.3-0.3,0.6-0.7,1-0.9c0.1-0.1,0.2-0.2,0.3-0.3c49.2-29.4,49.9-107.9,49.9-108.7
	l-0.1-75.5c-7.2-41.1-54.4-69.8-92.7-70c-0.2,0-0.4,0-0.6,0c-38.5,0-86,28.7-93.3,70l-0.1,75.6c0,0.8,0.7,77.2,50.3,108.8
	c0.1,0.1,0.2,0.2,0.3,0.2c0.4,0.3,0.6,0.6,0.9,0.9c0.3,0.3,0.6,0.7,0.9,1c0.1,0.1,0.2,0.2,0.2,0.3c0.1,0.3,0.2,0.6,0.3,0.9
	c0.2,0.4,0.3,0.8,0.4,1.3c0.1,0.4,0,0.9,0,1.3c0,0.4,0,0.8-0.1,1.2c-0.1,0.5-0.3,0.9-0.5,1.3c-0.1,0.3-0.1,0.5-0.3,0.8
	c-0.1,0.1-0.2,0.1-0.2,0.2c-0.3,0.4-0.6,0.6-0.9,0.9c-0.3,0.3-0.7,0.6-1,0.9c-0.1,0.1-0.1,0.2-0.3,0.2L69.3,413.3V436
	c0,3.7,2.8,6.7,6.2,6.7h360.9c3.4,0,6.2-3,6.2-6.7V413.3z"/>
</svg>
